HIERARCHY
ROOT Hip
{
  OFFSET 0.000000 0.000000 0.000000
  CHANNELS 6 Xposition Yposition Zposition Zrotation Xrotation Yrotation
  JOINT RHip
  {
    OFFSET 0.000000 0.000000 0.000000
    CHANNELS 3 Xposition Yposition Zposition
    End Site
    {
      OFFSET 0.000000 0.100000 0.000000
    }
  }
  JOINT RKnee
  {
    OFFSET 0.000000 0.000000 0.000000
    CHANNELS 3 Xposition Yposition Zposition
    End Site
    {
      OFFSET 0.000000 0.100000 0.000000
    }
  }
  JOINT RFoot
  {
    OFFSET 0.000000 0.000000 0.000000
    CHANNELS 3 Xposition Yposition Zposition
    End Site
    {
      OFFSET 0.000000 0.100000 0.000000
    }
  }
  JOINT LHip
  {
    OFFSET 0.000000 0.000000 0.000000
    CHANNELS 3 Xposition Yposition Zposition
    End Site
    {
      OFFSET 0.000000 0.100000 0.000000
    }
  }
  JOINT LKnee
  {
    OFFSET 0.000000 0.000000 0.000000
    CHANNELS 3 Xposition Yposition Zposition
    End Site
    {
      OFFSET 0.000000 0.100000 0.000000
    }
  }
  JOINT LFoot
  {
    OFFSET 0.000000 0.000000 0.000000
    CHANNELS 3 Xposition Yposition Zposition
    End Site
    {
      OFFSET 0.000000 0.100000 0.000000
    }
  }
  JOINT Spine
  {
    OFFSET 0.000000 0.000000 0.000000
    CHANNELS 3 Xposition Yposition Zposition
    End Site
    {
      OFFSET 0.000000 0.100000 0.000000
    }
  }
  JOINT Thorax
  {
    OFFSET 0.000000 0.000000 0.000000
    CHANNELS 3 Xposition Yposition Zposition
    End Site
    {
      OFFSET 0.000000 0.100000 0.000000
    }
  }
  JOINT Nose
  {
    OFFSET 0.000000 0.000000 0.000000
    CHANNELS 3 Xposition Yposition Zposition
    End Site
    {
      OFFSET 0.000000 0.100000 0.000000
    }
  }
  JOINT Head
  {
    OFFSET 0.000000 0.000000 0.000000
    CHANNELS 3 Xposition Yposition Zposition
    End Site
    {
      OFFSET 0.000000 0.100000 0.000000
    }
  }
  JOINT LShoulder
  {
    OFFSET 0.000000 0.000000 0.000000
    CHANNELS 3 Xposition Yposition Zposition
    End Site
    {
      OFFSET 0.000000 0.100000 0.000000
    }
  }
  JOINT LElbow
  {
    OFFSET 0.000000 0.000000 0.000000
    CHANNELS 3 Xposition Yposition Zposition
    End Site
    {
      OFFSET 0.000000 0.100000 0.000000
    }
  }
  JOINT LWrist
  {
    OFFSET 0.000000 0.000000 0.000000
    CHANNELS 3 Xposition Yposition Zposition
    End Site
    {
      OFFSET 0.000000 0.100000 0.000000
    }
  }
  JOINT RShoulder
  {
    OFFSET 0.000000 0.000000 0.000000
    CHANNELS 3 Xposition Yposition Zposition
    End Site
    {
      OFFSET 0.000000 0.100000 0.000000
    }
  }
  JOINT RElbow
  {
    OFFSET 0.000000 0.000000 0.000000
    CHANNELS 3 Xposition Yposition Zposition
    End Site
    {
      OFFSET 0.000000 0.100000 0.000000
    }
  }
  JOINT RWrist
  {
    OFFSET 0.000000 0.000000 0.000000
    CHANNELS 3 Xposition Yposition Zposition
    End Site
    {
      OFFSET 0.000000 0.100000 0.000000
    }
  }
}
MOTION
Frames: 11
Frame Time: 0.033333
0.000003 1.055832 0.000043 0.000000 0.000000 0.000000 -0.064248 -0.003020 -0.017089 0.214637 0.017393 0.017424 0.263980 -0.158739 0.128193 0.064211 0.002920 0.017099 -0.033086 -0.088774 0.049536 0.206339 -0.266051 0.051076 0.200493 -0.003466 -0.108495 0.326500 0.069932 -0.064696 -0.098733 0.117490 -0.296164 0.023171 0.147707 -0.351960 0.570875 -0.174425 -0.164179 0.198277 -0.566927 -0.459464 0.177136 -0.779508 -0.502520 0.112762 0.132423 -0.011330 0.531033 -0.406769 -0.204733 -0.007190 -0.469413 -0.266445
0.000003 1.055834 0.000084 0.000000 0.000000 0.000000 -0.007504 -0.014125 -0.004751 0.345636 -0.031616 0.055153 0.132983 -0.252540 0.136845 0.007479 0.014027 0.004670 0.024485 -0.230662 0.052343 0.125268 -0.376359 0.078116 0.162000 -0.017009 -0.112543 0.258067 0.062049 -0.075397 -0.010528 0.170149 -0.255011 0.060699 0.164610 -0.370776 0.416872 -0.174434 -0.143606 0.257814 -0.500199 -0.373385 0.123095 -0.660777 -0.426015 0.149436 0.082813 -0.030174 0.513806 -0.373837 -0.160106 -0.202516 -0.529341 -0.160087
0.000002 1.055837 0.000092 0.000000 0.000000 0.000000 0.025864 -0.028648 0.003090 0.464467 -0.141499 0.064813 0.060133 -0.344893 0.079713 -0.025879 0.028548 -0.003200 0.114664 -0.324892 0.032403 -0.034362 -0.411821 0.071547 0.100214 -0.048785 -0.125552 0.170985 0.015618 -0.090145 0.091270 0.171658 -0.218557 0.140710 0.153794 -0.374350 0.235403 -0.214565 -0.137644 0.193641 -0.458356 -0.249283 0.029488 -0.610418 -0.311667 0.167512 0.009640 -0.060599 0.424464 -0.320428 -0.114219 -0.374615 -0.536196 -0.089295
0.000002 1.055839 0.000063 0.000000 0.000000 0.000000 0.023269 -0.041506 0.008766 0.553005 -0.239228 0.038669 0.055010 -0.382923 -0.004346 -0.023282 0.041401 -0.008830 0.169195 -0.320467 -0.014910 -0.202422 -0.372842 0.029355 0.046202 -0.083238 -0.133336 0.101527 -0.050378 -0.102848 0.163148 0.146280 -0.194910 0.226668 0.129695 -0.356925 0.113256 -0.263309 -0.152250 0.021299 -0.418715 -0.174865 -0.079628 -0.607904 -0.237886 0.143337 -0.057130 -0.084119 0.314172 -0.222117 -0.082410 -0.499117 -0.481858 -0.066819
0.000002 1.055840 0.000028 0.000000 0.000000 0.000000 -0.002613 -0.044102 0.009847 0.618001 -0.292988 -0.028995 0.127774 -0.392819 -0.077737 0.002596 0.043993 -0.009848 0.187298 -0.255106 -0.074311 -0.310579 -0.334047 -0.021856 0.029632 -0.105547 -0.127050 0.076252 -0.101616 -0.112712 0.179623 0.126468 -0.182684 0.294437 0.104470 -0.324115 0.087965 -0.290223 -0.180036 -0.168343 -0.370061 -0.209443 -0.155166 -0.609410 -0.248335 0.101928 -0.082515 -0.097621 0.259698 -0.081603 -0.063065 -0.519277 -0.407901 -0.060419
0.000002 1.055838 -0.000002 0.000000 0.000000 0.000000 -0.038027 -0.043326 0.007326 0.671605 -0.339284 -0.107319 0.249862 -0.387021 -0.122497 0.038007 0.043221 -0.007269 0.198771 -0.155321 -0.112460 -0.359991 -0.332287 -0.032649 0.046325 -0.116092 -0.113560 0.092726 -0.130617 -0.119502 0.125597 0.093692 -0.180993 0.332993 0.063502 -0.283637 0.129238 -0.300929 -0.207682 -0.276325 -0.309508 -0.302266 -0.191091 -0.579993 -0.294239 0.083073 -0.084972 -0.099702 0.271529 0.060687 -0.059316 -0.408625 -0.355070 -0.044425
0.000002 1.055834 -0.000030 0.000000 0.000000 0.000000 -0.073919 -0.050621 0.010463 0.689476 -0.371549 -0.164240 0.376258 -0.311335 -0.139516 0.073896 0.050527 -0.010349 0.183827 -0.018301 -0.126504 -0.369085 -0.339258 0.026761 0.069630 -0.116426 -0.110078 0.123967 -0.141530 -0.124359 0.014260 0.048868 -0.176798 0.335912 0.032874 -0.235465 0.185687 -0.300286 -0.231130 -0.228455 -0.248036 -0.392343 -0.206795 -0.520044 -0.343046 0.089219 -0.101143 -0.094640 0.316179 0.168442 -0.080145 -0.220367 -0.354774 -0.020607
0.000003 1.055830 -0.000044 0.000000 0.000000 0.000000 -0.093611 -0.069159 0.026694 0.618548 -0.330043 -0.160548 0.480146 -0.155934 -0.114115 0.093580 0.069079 -0.026556 0.115572 0.151989 -0.114104 -0.347405 -0.333683 0.148688 0.076339 -0.098907 -0.126100 0.139441 -0.122897 -0.130657 -0.124959 0.015414 -0.168924 0.334230 0.057470 -0.187818 0.208730 -0.266447 -0.254755 -0.033062 -0.195186 -0.478891 -0.202731 -0.446514 -0.407803 0.108271 -0.131493 -0.086815 0.361077 0.232667 -0.108342 -0.032935 -0.383663 0.024837
0.000003 1.055827 -0.000031 0.000000 0.000000 0.000000 -0.083055 -0.097136 0.052046 0.429542 -0.203322 -0.078452 0.515475 -0.006889 -0.046870 0.083013 0.097062 -0.051939 0.023224 0.317072 -0.069477 -0.317732 -0.324808 0.273619 0.054012 -0.063698 -0.146345 0.108113 -0.072577 -0.132150 -0.255745 -0.010021 -0.161474 0.361058 0.128447 -0.134945 0.154863 -0.186274 -0.276898 0.201314 -0.178709 -0.555243 -0.166944 -0.385787 -0.461777 0.118163 -0.156402 -0.071001 0.348434 0.252528 -0.106809 0.088084 -0.400003 0.098556
0.000004 1.055827 0.000020 0.000000 0.000000 0.000000 -0.049110 -0.129645 0.074569 0.140063 -0.073402 0.034724 0.445156 0.061686 0.012160 0.049062 0.129570 -0.074564 -0.037022 0.416762 -0.017779 -0.287211 -0.330746 0.341063 0.007305 -0.026825 -0.146251 0.024130 -0.013716 -0.116083 -0.311022 -0.028468 -0.141419 0.407587 0.225254 -0.069877 0.018639 -0.094863 -0.278879 0.341208 -0.207419 -0.574775 -0.115683 -0.356518 -0.443988 0.100552 -0.167019 -0.047153 0.250492 0.218176 -0.061327 0.135733 -0.411441 0.166762
0.000004 1.055829 0.000092 0.000000 0.000000 0.000000 -0.006947 -0.156488 0.088323 -0.168649 -0.012179 0.130905 0.311023 0.034132 0.026808 0.006902 0.156411 -0.088458 -0.088001 0.420531 0.012930 -0.291055 -0.346775 0.336601 -0.060444 -0.002811 -0.130934 -0.094598 0.023093 -0.085025 -0.240740 -0.030143 -0.117575 0.458292 0.326783 -0.027660 -0.172276 -0.046805 -0.245513 0.295659 -0.251852 -0.500766 -0.080342 -0.374781 -0.353620 0.046004 -0.177548 -0.027176 0.146635 0.138201 -0.009645 0.151403 -0.440376 0.185744
